<svg xmlns="http://www.w3.org/2000/svg" xmlns:xlink="http://www.w3.org/1999/xlink" width="500" zoomAndPan="magnify" viewBox="0 0 375 374.999991" height="500" preserveAspectRatio="xMidYMid meet" version="1.0"><defs><g/><clipPath id="id1"><path d="M 52.472656 148.683594 L 130.472656 148.683594 L 130.472656 226.683594 L 52.472656 226.683594 Z M 52.472656 148.683594 " clip-rule="nonzero"/></clipPath></defs><g clip-path="url(#id1)"><path fill="#000000" d="M 91.472656 226.683594 C 69.96875 226.683594 52.472656 209.1875 52.472656 187.683594 C 52.472656 166.179688 69.96875 148.683594 91.472656 148.683594 C 112.976562 148.683594 130.472656 166.179688 130.472656 187.683594 C 130.472656 209.1875 112.976562 226.683594 91.472656 226.683594 Z M 91.472656 152.398438 C 72.015625 152.398438 56.1875 168.226562 56.1875 187.683594 C 56.1875 207.140625 72.015625 222.96875 91.472656 222.96875 C 110.929688 222.96875 126.757812 207.140625 126.757812 187.683594 C 126.757812 168.226562 110.929688 152.398438 91.472656 152.398438 Z M 91.472656 152.398438 " fill-opacity="1" fill-rule="nonzero"/><path fill="#000000" d="M 91.472656 148.683594 C 69.933594 148.683594 52.472656 166.144531 52.472656 187.683594 C 52.472656 209.222656 69.933594 226.683594 91.472656 226.683594 C 113.011719 226.683594 130.472656 209.222656 130.472656 187.683594 C 130.472656 166.144531 113.011719 148.683594 91.472656 148.683594 Z M 63.414062 186.683594 C 63.414062 183.632812 63.980469 181.085938 64.746094 180.386719 L 64.734375 180.386719 C 65.203125 179.628906 66.160156 179.105469 67.25 179.105469 C 68.339844 179.105469 69.292969 179.628906 69.761719 180.386719 C 70.960938 182.554688 72.898438 184.347656 75.386719 185.324219 L 75.976562 185.558594 C 79.691406 187.015625 83.703125 186.324219 86.664062 184.089844 C 86.082031 183.535156 85.871094 182.65625 86.183594 181.867188 L 87.21875 179.242188 C 87.640625 178.183594 88.832031 177.671875 89.886719 178.082031 L 90.398438 178.285156 C 90.421875 178.296875 90.433594 178.304688 90.453125 178.316406 L 90.453125 178.304688 L 109.578125 185.8125 L 113.40625 186.304688 C 113.570312 186.324219 113.714844 186.359375 113.859375 186.414062 C 117.074219 186.914062 119.53125 189.75 119.53125 193.1875 L 65.082031 193.1875 L 65.082031 193.167969 C 64.167969 192.945312 63.433594 190.128906 63.414062 186.683594 Z M 119.53125 197.425781 L 64.3125 197.425781 L 64.3125 194.054688 L 119.53125 194.054688 Z M 119.53125 197.425781 " fill-opacity="1" fill-rule="nonzero"/></g><g fill="#000000" fill-opacity="1"><g transform="translate(183.66796, 156.068171)"><g><path d="M 20.671875 -8.234375 C 20.671875 -6.554688 20.242188 -5.0625 19.390625 -3.75 C 18.535156 -2.445312 17.300781 -1.429688 15.6875 -0.703125 C 14.082031 0.015625 12.195312 0.375 10.03125 0.375 C 8.226562 0.375 6.710938 0.25 5.484375 0 C 4.265625 -0.257812 2.992188 -0.707031 1.671875 -1.34375 L 1.671875 -7.875 C 3.066406 -7.15625 4.519531 -6.59375 6.03125 -6.1875 C 7.539062 -5.78125 8.925781 -5.578125 10.1875 -5.578125 C 11.269531 -5.578125 12.066406 -5.765625 12.578125 -6.140625 C 13.085938 -6.523438 13.34375 -7.015625 13.34375 -7.609375 C 13.34375 -7.984375 13.238281 -8.304688 13.03125 -8.578125 C 12.832031 -8.859375 12.503906 -9.140625 12.046875 -9.421875 C 11.597656 -9.710938 10.394531 -10.296875 8.4375 -11.171875 C 6.675781 -11.972656 5.351562 -12.75 4.46875 -13.5 C 3.582031 -14.257812 2.925781 -15.128906 2.5 -16.109375 C 2.070312 -17.085938 1.859375 -18.242188 1.859375 -19.578125 C 1.859375 -22.078125 2.765625 -24.023438 4.578125 -25.421875 C 6.398438 -26.816406 8.898438 -27.515625 12.078125 -27.515625 C 14.890625 -27.515625 17.753906 -26.863281 20.671875 -25.5625 L 18.421875 -19.90625 C 15.890625 -21.070312 13.703125 -21.65625 11.859375 -21.65625 C 10.898438 -21.65625 10.203125 -21.488281 9.765625 -21.15625 C 9.335938 -20.820312 9.125 -20.40625 9.125 -19.90625 C 9.125 -19.375 9.398438 -18.894531 9.953125 -18.46875 C 10.503906 -18.050781 12 -17.289062 14.4375 -16.1875 C 16.769531 -15.132812 18.390625 -14.003906 19.296875 -12.796875 C 20.210938 -11.585938 20.671875 -10.066406 20.671875 -8.234375 Z M 20.671875 -8.234375 "/></g></g></g><g fill="#000000" fill-opacity="1"><g transform="translate(205.595091, 156.068171)"><g><path d="M 22.578125 -10.5625 C 22.578125 -7.125 21.648438 -4.441406 19.796875 -2.515625 C 17.953125 -0.585938 15.367188 0.375 12.046875 0.375 C 8.847656 0.375 6.304688 -0.609375 4.421875 -2.578125 C 2.535156 -4.546875 1.59375 -7.207031 1.59375 -10.5625 C 1.59375 -13.988281 2.515625 -16.648438 4.359375 -18.546875 C 6.210938 -20.441406 8.8125 -21.390625 12.15625 -21.390625 C 14.21875 -21.390625 16.039062 -20.953125 17.625 -20.078125 C 19.207031 -19.203125 20.425781 -17.941406 21.28125 -16.296875 C 22.144531 -14.660156 22.578125 -12.75 22.578125 -10.5625 Z M 8.96875 -10.5625 C 8.96875 -8.75 9.207031 -7.367188 9.6875 -6.421875 C 10.164062 -5.484375 10.972656 -5.015625 12.109375 -5.015625 C 13.242188 -5.015625 14.039062 -5.484375 14.5 -6.421875 C 14.96875 -7.367188 15.203125 -8.75 15.203125 -10.5625 C 15.203125 -12.351562 14.960938 -13.707031 14.484375 -14.625 C 14.015625 -15.539062 13.210938 -16 12.078125 -16 C 10.960938 -16 10.164062 -15.539062 9.6875 -14.625 C 9.207031 -13.71875 8.96875 -12.363281 8.96875 -10.5625 Z M 8.96875 -10.5625 "/></g></g></g><g fill="#000000" fill-opacity="1"><g transform="translate(229.803978, 156.068171)"><g><path d="M 15.203125 -21.390625 C 15.828125 -21.390625 16.425781 -21.34375 17 -21.25 L 17.40625 -21.171875 L 16.75 -14.328125 C 16.15625 -14.472656 15.332031 -14.546875 14.28125 -14.546875 C 12.695312 -14.546875 11.546875 -14.179688 10.828125 -13.453125 C 10.117188 -12.734375 9.765625 -11.691406 9.765625 -10.328125 L 9.765625 0 L 2.5 0 L 2.5 -21.015625 L 7.90625 -21.015625 L 9.03125 -17.671875 L 9.390625 -17.671875 C 9.992188 -18.773438 10.835938 -19.671875 11.921875 -20.359375 C 13.003906 -21.046875 14.097656 -21.390625 15.203125 -21.390625 Z M 15.203125 -21.390625 "/></g></g></g><g fill="#000000" fill-opacity="1"><g transform="translate(247.631366, 156.068171)"><g><path d="M 15.203125 -21.390625 C 15.828125 -21.390625 16.425781 -21.34375 17 -21.25 L 17.40625 -21.171875 L 16.75 -14.328125 C 16.15625 -14.472656 15.332031 -14.546875 14.28125 -14.546875 C 12.695312 -14.546875 11.546875 -14.179688 10.828125 -13.453125 C 10.117188 -12.734375 9.765625 -11.691406 9.765625 -10.328125 L 9.765625 0 L 2.5 0 L 2.5 -21.015625 L 7.90625 -21.015625 L 9.03125 -17.671875 L 9.390625 -17.671875 C 9.992188 -18.773438 10.835938 -19.671875 11.921875 -20.359375 C 13.003906 -21.046875 14.097656 -21.390625 15.203125 -21.390625 Z M 15.203125 -21.390625 "/></g></g></g><g fill="#000000" fill-opacity="1"><g transform="translate(265.458754, 156.068171)"><g><path d="M -0.03125 -21.015625 L 7.609375 -21.015625 L 11.171875 -8.96875 C 11.347656 -8.332031 11.460938 -7.570312 11.515625 -6.6875 L 11.671875 -6.6875 C 11.765625 -7.53125 11.910156 -8.273438 12.109375 -8.921875 L 15.765625 -21.015625 L 23.171875 -21.015625 L 14.859375 1.34375 C 13.796875 4.1875 12.488281 6.191406 10.9375 7.359375 C 9.382812 8.535156 7.359375 9.125 4.859375 9.125 C 3.898438 9.125 2.910156 9.019531 1.890625 8.8125 L 1.890625 3.125 C 2.546875 3.269531 3.296875 3.34375 4.140625 3.34375 C 4.785156 3.34375 5.347656 3.21875 5.828125 2.96875 C 6.304688 2.71875 6.722656 2.367188 7.078125 1.921875 C 7.441406 1.472656 7.828125 0.734375 8.234375 -0.296875 Z M -0.03125 -21.015625 "/></g></g></g><g fill="#000000" fill-opacity="1"><g transform="translate(288.628793, 156.068171)"><g><path d="M 9.234375 -5.546875 L 9.5 -5.125 C 8.300781 -0.40625 7.210938 3.0625 6.234375 5.28125 L 1.0625 5.28125 C 1.414062 3.582031 1.773438 1.671875 2.140625 -0.453125 C 2.503906 -2.578125 2.753906 -4.273438 2.890625 -5.546875 Z M 9.234375 -5.546875 "/></g></g></g><g fill="#000000" fill-opacity="1"><g transform="translate(300.363265, 156.068171)"><g/></g></g><g fill="#000000" fill-opacity="1"><g transform="translate(156.433587, 208.568168)"><g><path d="M 22.625 -18.5 C 22.625 -15.46875 21.726562 -13.125 19.9375 -11.46875 C 18.144531 -9.820312 15.609375 -9 12.328125 -9 L 10.265625 -9 L 10.265625 0 L 2.9375 0 L 2.9375 -27.125 L 12.328125 -27.125 C 15.742188 -27.125 18.3125 -26.375 20.03125 -24.875 C 21.757812 -23.382812 22.625 -21.257812 22.625 -18.5 Z M 10.265625 -14.96875 L 11.59375 -14.96875 C 12.695312 -14.96875 13.570312 -15.273438 14.21875 -15.890625 C 14.875 -16.515625 15.203125 -17.375 15.203125 -18.46875 C 15.203125 -20.289062 14.1875 -21.203125 12.15625 -21.203125 L 10.265625 -21.203125 Z M 10.265625 -14.96875 "/></g></g></g><g fill="#000000" fill-opacity="1"><g transform="translate(180.438415, 208.568168)"><g><path d="M 16.21875 0 L 14.828125 -2.78125 L 14.671875 -2.78125 C 13.703125 -1.570312 12.707031 -0.742188 11.6875 -0.296875 C 10.675781 0.148438 9.363281 0.375 7.75 0.375 C 5.769531 0.375 4.210938 -0.21875 3.078125 -1.40625 C 1.941406 -2.59375 1.375 -4.265625 1.375 -6.421875 C 1.375 -8.660156 2.148438 -10.328125 3.703125 -11.421875 C 5.265625 -12.515625 7.523438 -13.128906 10.484375 -13.265625 L 13.984375 -13.375 L 13.984375 -13.671875 C 13.984375 -15.398438 13.132812 -16.265625 11.4375 -16.265625 C 9.894531 -16.265625 7.941406 -15.75 5.578125 -14.71875 L 3.484375 -19.5 C 5.929688 -20.757812 9.023438 -21.390625 12.765625 -21.390625 C 15.460938 -21.390625 17.550781 -20.722656 19.03125 -19.390625 C 20.507812 -18.054688 21.25 -16.1875 21.25 -13.78125 L 21.25 0 Z M 10.84375 -4.75 C 11.71875 -4.75 12.46875 -5.023438 13.09375 -5.578125 C 13.71875 -6.140625 14.03125 -6.863281 14.03125 -7.75 L 14.03125 -9.390625 L 12.359375 -9.3125 C 9.972656 -9.226562 8.78125 -8.351562 8.78125 -6.6875 C 8.78125 -5.394531 9.46875 -4.75 10.84375 -4.75 Z M 10.84375 -4.75 "/></g></g></g><g fill="#000000" fill-opacity="1"><g transform="translate(204.109327, 208.568168)"><g><path d="M 22.34375 -21.015625 L 22.34375 -17.515625 L 19.46875 -16.453125 C 19.863281 -15.734375 20.0625 -14.898438 20.0625 -13.953125 C 20.0625 -11.691406 19.265625 -9.9375 17.671875 -8.6875 C 16.085938 -7.4375 13.71875 -6.8125 10.5625 -6.8125 C 9.78125 -6.8125 9.160156 -6.859375 8.703125 -6.953125 C 8.523438 -6.628906 8.4375 -6.328125 8.4375 -6.046875 C 8.4375 -5.691406 8.726562 -5.414062 9.3125 -5.21875 C 9.894531 -5.03125 10.65625 -4.9375 11.59375 -4.9375 L 15.078125 -4.9375 C 19.796875 -4.9375 22.15625 -2.953125 22.15625 1.015625 C 22.15625 3.578125 21.0625 5.566406 18.875 6.984375 C 16.695312 8.410156 13.632812 9.125 9.6875 9.125 C 6.707031 9.125 4.410156 8.625 2.796875 7.625 C 1.179688 6.632812 0.375 5.207031 0.375 3.34375 C 0.375 0.832031 1.929688 -0.785156 5.046875 -1.515625 C 4.398438 -1.796875 3.835938 -2.238281 3.359375 -2.84375 C 2.890625 -3.445312 2.65625 -4.046875 2.65625 -4.640625 C 2.65625 -5.296875 2.832031 -5.875 3.1875 -6.375 C 3.550781 -6.875 4.300781 -7.472656 5.4375 -8.171875 C 4.34375 -8.648438 3.484375 -9.398438 2.859375 -10.421875 C 2.242188 -11.453125 1.9375 -12.703125 1.9375 -14.171875 C 1.9375 -16.460938 2.710938 -18.238281 4.265625 -19.5 C 5.828125 -20.757812 8.054688 -21.390625 10.953125 -21.390625 C 11.328125 -21.390625 11.984375 -21.347656 12.921875 -21.265625 C 13.867188 -21.179688 14.566406 -21.097656 15.015625 -21.015625 Z M 6.5 2.609375 C 6.5 3.203125 6.816406 3.679688 7.453125 4.046875 C 8.097656 4.421875 8.957031 4.609375 10.03125 4.609375 C 11.789062 4.609375 13.195312 4.382812 14.25 3.9375 C 15.3125 3.5 15.84375 2.9375 15.84375 2.25 C 15.84375 1.6875 15.519531 1.289062 14.875 1.0625 C 14.238281 0.832031 13.316406 0.71875 12.109375 0.71875 L 9.28125 0.71875 C 8.5 0.71875 7.835938 0.898438 7.296875 1.265625 C 6.765625 1.628906 6.5 2.078125 6.5 2.609375 Z M 8.78125 -14.140625 C 8.78125 -11.984375 9.523438 -10.90625 11.015625 -10.90625 C 11.710938 -10.90625 12.25 -11.171875 12.625 -11.703125 C 13 -12.234375 13.1875 -13.035156 13.1875 -14.109375 C 13.1875 -16.285156 12.460938 -17.375 11.015625 -17.375 C 9.523438 -17.375 8.78125 -16.296875 8.78125 -14.140625 Z M 8.78125 -14.140625 "/></g></g></g><g fill="#000000" fill-opacity="1"><g transform="translate(227.130958, 208.568168)"><g><path d="M 12.65625 0.375 C 9.15625 0.375 6.4375 -0.554688 4.5 -2.421875 C 2.5625 -4.285156 1.59375 -6.9375 1.59375 -10.375 C 1.59375 -13.925781 2.488281 -16.648438 4.28125 -18.546875 C 6.082031 -20.441406 8.644531 -21.390625 11.96875 -21.390625 C 15.132812 -21.390625 17.578125 -20.5625 19.296875 -18.90625 C 21.023438 -17.257812 21.890625 -14.882812 21.890625 -11.78125 L 21.890625 -8.546875 L 8.921875 -8.546875 C 8.972656 -7.378906 9.40625 -6.457031 10.21875 -5.78125 C 11.03125 -5.113281 12.132812 -4.78125 13.53125 -4.78125 C 14.800781 -4.78125 15.96875 -4.898438 17.03125 -5.140625 C 18.101562 -5.390625 19.265625 -5.804688 20.515625 -6.390625 L 20.515625 -1.171875 C 19.378906 -0.585938 18.203125 -0.1875 16.984375 0.03125 C 15.773438 0.257812 14.332031 0.375 12.65625 0.375 Z M 12.234375 -16.453125 C 11.378906 -16.453125 10.660156 -16.179688 10.078125 -15.640625 C 9.503906 -15.109375 9.171875 -14.269531 9.078125 -13.125 L 15.3125 -13.125 C 15.28125 -14.132812 14.988281 -14.941406 14.4375 -15.546875 C 13.894531 -16.148438 13.160156 -16.453125 12.234375 -16.453125 Z M 12.234375 -16.453125 "/></g></g></g><g fill="#000000" fill-opacity="1"><g transform="translate(250.616361, 208.568168)"><g/></g></g><g fill="#000000" fill-opacity="1"><g transform="translate(260.485425, 208.568168)"><g><path d="M 15.765625 0 L 15.765625 -11.46875 C 15.765625 -12.863281 15.5625 -13.914062 15.15625 -14.625 C 14.757812 -15.34375 14.117188 -15.703125 13.234375 -15.703125 C 12.003906 -15.703125 11.117188 -15.210938 10.578125 -14.234375 C 10.035156 -13.253906 9.765625 -11.578125 9.765625 -9.203125 L 9.765625 0 L 2.5 0 L 2.5 -21.015625 L 7.984375 -21.015625 L 8.890625 -18.421875 L 9.3125 -18.421875 C 9.9375 -19.410156 10.796875 -20.148438 11.890625 -20.640625 C 12.984375 -21.140625 14.238281 -21.390625 15.65625 -21.390625 C 17.988281 -21.390625 19.800781 -20.710938 21.09375 -19.359375 C 22.382812 -18.015625 23.03125 -16.117188 23.03125 -13.671875 L 23.03125 0 Z M 15.765625 0 "/></g></g></g><g fill="#000000" fill-opacity="1"><g transform="translate(285.937221, 208.568168)"><g><path d="M 22.578125 -10.5625 C 22.578125 -7.125 21.648438 -4.441406 19.796875 -2.515625 C 17.953125 -0.585938 15.367188 0.375 12.046875 0.375 C 8.847656 0.375 6.304688 -0.609375 4.421875 -2.578125 C 2.535156 -4.546875 1.59375 -7.207031 1.59375 -10.5625 C 1.59375 -13.988281 2.515625 -16.648438 4.359375 -18.546875 C 6.210938 -20.441406 8.8125 -21.390625 12.15625 -21.390625 C 14.21875 -21.390625 16.039062 -20.953125 17.625 -20.078125 C 19.207031 -19.203125 20.425781 -17.941406 21.28125 -16.296875 C 22.144531 -14.660156 22.578125 -12.75 22.578125 -10.5625 Z M 8.96875 -10.5625 C 8.96875 -8.75 9.207031 -7.367188 9.6875 -6.421875 C 10.164062 -5.484375 10.972656 -5.015625 12.109375 -5.015625 C 13.242188 -5.015625 14.039062 -5.484375 14.5 -6.421875 C 14.96875 -7.367188 15.203125 -8.75 15.203125 -10.5625 C 15.203125 -12.351562 14.960938 -13.707031 14.484375 -14.625 C 14.015625 -15.539062 13.210938 -16 12.078125 -16 C 10.960938 -16 10.164062 -15.539062 9.6875 -14.625 C 9.207031 -13.71875 8.96875 -12.363281 8.96875 -10.5625 Z M 8.96875 -10.5625 "/></g></g></g><g fill="#000000" fill-opacity="1"><g transform="translate(310.146109, 208.568168)"><g><path d="M 12.796875 -5.359375 C 13.773438 -5.359375 14.945312 -5.601562 16.3125 -6.09375 L 16.3125 -0.796875 C 15.332031 -0.378906 14.398438 -0.0820312 13.515625 0.09375 C 12.628906 0.28125 11.59375 0.375 10.40625 0.375 C 7.96875 0.375 6.210938 -0.21875 5.140625 -1.40625 C 4.066406 -2.601562 3.53125 -4.441406 3.53125 -6.921875 L 3.53125 -15.59375 L 0.984375 -15.59375 L 0.984375 -18.53125 L 4.21875 -20.8125 L 6.09375 -25.234375 L 10.84375 -25.234375 L 10.84375 -21.015625 L 16 -21.015625 L 16 -15.59375 L 10.84375 -15.59375 L 10.84375 -7.40625 C 10.84375 -6.039062 11.492188 -5.359375 12.796875 -5.359375 Z M 12.796875 -5.359375 "/></g></g></g><g fill="#000000" fill-opacity="1"><g transform="translate(327.609361, 208.568168)"><g/></g></g><g fill="#000000" fill-opacity="1"><g transform="translate(183.832023, 261.068164)"><g><path d="M 15.34375 -15.59375 L 10.875 -15.59375 L 10.875 0 L 3.625 0 L 3.625 -15.59375 L 0.828125 -15.59375 L 0.828125 -19.15625 L 3.765625 -20.9375 L 3.765625 -21.28125 C 3.765625 -24.050781 4.328125 -26.039062 5.453125 -27.25 C 6.585938 -28.46875 8.40625 -29.078125 10.90625 -29.078125 C 11.875 -29.078125 12.785156 -29 13.640625 -28.84375 C 14.503906 -28.695312 15.503906 -28.441406 16.640625 -28.078125 L 15.078125 -23.375 C 14.191406 -23.625 13.320312 -23.75 12.46875 -23.75 C 11.914062 -23.75 11.507812 -23.578125 11.25 -23.234375 C 11 -22.898438 10.875 -22.347656 10.875 -21.578125 L 10.875 -21.015625 L 15.34375 -21.015625 Z M 15.34375 -15.59375 "/></g></g></g><g fill="#000000" fill-opacity="1"><g transform="translate(199.52606, 261.068164)"><g><path d="M 22.578125 -10.5625 C 22.578125 -7.125 21.648438 -4.441406 19.796875 -2.515625 C 17.953125 -0.585938 15.367188 0.375 12.046875 0.375 C 8.847656 0.375 6.304688 -0.609375 4.421875 -2.578125 C 2.535156 -4.546875 1.59375 -7.207031 1.59375 -10.5625 C 1.59375 -13.988281 2.515625 -16.648438 4.359375 -18.546875 C 6.210938 -20.441406 8.8125 -21.390625 12.15625 -21.390625 C 14.21875 -21.390625 16.039062 -20.953125 17.625 -20.078125 C 19.207031 -19.203125 20.425781 -17.941406 21.28125 -16.296875 C 22.144531 -14.660156 22.578125 -12.75 22.578125 -10.5625 Z M 8.96875 -10.5625 C 8.96875 -8.75 9.207031 -7.367188 9.6875 -6.421875 C 10.164062 -5.484375 10.972656 -5.015625 12.109375 -5.015625 C 13.242188 -5.015625 14.039062 -5.484375 14.5 -6.421875 C 14.96875 -7.367188 15.203125 -8.75 15.203125 -10.5625 C 15.203125 -12.351562 14.960938 -13.707031 14.484375 -14.625 C 14.015625 -15.539062 13.210938 -16 12.078125 -16 C 10.960938 -16 10.164062 -15.539062 9.6875 -14.625 C 9.207031 -13.71875 8.96875 -12.363281 8.96875 -10.5625 Z M 8.96875 -10.5625 "/></g></g></g><g fill="#000000" fill-opacity="1"><g transform="translate(223.734948, 261.068164)"><g><path d="M 17.484375 0 L 16.5625 -2.609375 L 16.140625 -2.609375 C 15.535156 -1.648438 14.691406 -0.910156 13.609375 -0.390625 C 12.523438 0.117188 11.253906 0.375 9.796875 0.375 C 7.484375 0.375 5.679688 -0.296875 4.390625 -1.640625 C 3.109375 -2.984375 2.46875 -4.878906 2.46875 -7.328125 L 2.46875 -21.015625 L 9.71875 -21.015625 L 9.71875 -9.53125 C 9.71875 -8.164062 9.910156 -7.128906 10.296875 -6.421875 C 10.691406 -5.710938 11.335938 -5.359375 12.234375 -5.359375 C 13.484375 -5.359375 14.375 -5.847656 14.90625 -6.828125 C 15.4375 -7.816406 15.703125 -9.476562 15.703125 -11.8125 L 15.703125 -21.015625 L 22.953125 -21.015625 L 22.953125 0 Z M 17.484375 0 "/></g></g></g><g fill="#000000" fill-opacity="1"><g transform="translate(249.186744, 261.068164)"><g><path d="M 15.765625 0 L 15.765625 -11.46875 C 15.765625 -12.863281 15.5625 -13.914062 15.15625 -14.625 C 14.757812 -15.34375 14.117188 -15.703125 13.234375 -15.703125 C 12.003906 -15.703125 11.117188 -15.210938 10.578125 -14.234375 C 10.035156 -13.253906 9.765625 -11.578125 9.765625 -9.203125 L 9.765625 0 L 2.5 0 L 2.5 -21.015625 L 7.984375 -21.015625 L 8.890625 -18.421875 L 9.3125 -18.421875 C 9.9375 -19.410156 10.796875 -20.148438 11.890625 -20.640625 C 12.984375 -21.140625 14.238281 -21.390625 15.65625 -21.390625 C 17.988281 -21.390625 19.800781 -20.710938 21.09375 -19.359375 C 22.382812 -18.015625 23.03125 -16.117188 23.03125 -13.671875 L 23.03125 0 Z M 15.765625 0 "/></g></g></g><g fill="#000000" fill-opacity="1"><g transform="translate(274.63854, 261.068164)"><g><path d="M 9.03125 0.375 C 7.539062 0.375 6.234375 -0.0507812 5.109375 -0.90625 C 3.992188 -1.757812 3.128906 -3.015625 2.515625 -4.671875 C 1.898438 -6.328125 1.59375 -8.265625 1.59375 -10.484375 C 1.59375 -13.898438 2.28125 -16.570312 3.65625 -18.5 C 5.03125 -20.425781 6.914062 -21.390625 9.3125 -21.390625 C 10.488281 -21.390625 11.519531 -21.15625 12.40625 -20.6875 C 13.289062 -20.21875 14.097656 -19.425781 14.828125 -18.3125 L 14.96875 -18.3125 C 14.738281 -19.957031 14.625 -21.601562 14.625 -23.25 L 14.625 -28.875 L 21.9375 -28.875 L 21.9375 0 L 16.453125 0 L 14.90625 -2.65625 L 14.625 -2.65625 C 13.375 -0.632812 11.507812 0.375 9.03125 0.375 Z M 12 -5.359375 C 13.164062 -5.359375 13.984375 -5.722656 14.453125 -6.453125 C 14.929688 -7.179688 15.191406 -8.304688 15.234375 -9.828125 L 15.234375 -10.40625 C 15.234375 -12.257812 14.96875 -13.578125 14.4375 -14.359375 C 13.90625 -15.148438 13.070312 -15.546875 11.9375 -15.546875 C 10.976562 -15.546875 10.234375 -15.097656 9.703125 -14.203125 C 9.179688 -13.304688 8.921875 -12.03125 8.921875 -10.375 C 8.921875 -8.738281 9.1875 -7.492188 9.71875 -6.640625 C 10.25 -5.785156 11.007812 -5.359375 12 -5.359375 Z M 12 -5.359375 "/></g></g></g><g fill="#000000" fill-opacity="1"><g transform="translate(299.070038, 261.068164)"><g><path d="M 8.59375 -9.578125 L 2.46875 -9.578125 L 1.515625 -27.125 L 9.53125 -27.125 Z M 1.59375 -3.078125 C 1.59375 -4.203125 1.925781 -5.078125 2.59375 -5.703125 C 3.257812 -6.328125 4.234375 -6.640625 5.515625 -6.640625 C 6.773438 -6.640625 7.726562 -6.328125 8.375 -5.703125 C 9.03125 -5.078125 9.359375 -4.203125 9.359375 -3.078125 C 9.359375 -1.960938 9.019531 -1.09375 8.34375 -0.46875 C 7.664062 0.15625 6.722656 0.46875 5.515625 0.46875 C 4.285156 0.46875 3.320312 0.15625 2.625 -0.46875 C 1.9375 -1.09375 1.59375 -1.960938 1.59375 -3.078125 Z M 1.59375 -3.078125 "/></g></g></g></svg>