<svg xmlns="http://www.w3.org/2000/svg" xmlns:xlink="http://www.w3.org/1999/xlink" width="50" zoomAndPan="magnify" viewBox="0 0 37.5 37.499999" height="50" preserveAspectRatio="xMidYMid meet" version="1.0"><defs><clipPath id="id1"><path d="M 3.75 3.75 L 35.25 3.75 L 35.25 35.25 L 3.75 35.25 Z M 3.75 3.75 " clip-rule="nonzero"/></clipPath></defs><path fill="#ffffff" d="M 21.011719 14.777344 L 21.011719 17.335938 L 24.238281 17.335938 L 23.785156 20.839844 L 21.011719 20.839844 L 21.011719 28.867188 L 17.496094 28.867188 L 17.496094 20.839844 L 14.484375 20.839844 L 14.484375 17.335938 L 17.496094 17.335938 L 17.496094 14.777344 C 17.496094 12.003906 19.738281 10.132812 22.511719 10.132812 C 23.734375 10.132812 24.503906 10.316406 24.503906 10.316406 L 24.503906 13.277344 L 22.511719 13.277344 C 21.6875 13.277344 21.011719 13.953125 21.011719 14.777344 Z M 21.011719 14.777344 " fill-opacity="1" fill-rule="nonzero"/><g clip-path="url(#id1)"><path fill="#ffffff" d="M 19.5 35.25 C 10.820312 35.25 3.75 28.191406 3.75 19.5 C 3.75 10.808594 10.820312 3.75 19.5 3.75 C 28.191406 3.75 35.25 10.820312 35.25 19.5 C 35.25 28.179688 28.191406 35.25 19.5 35.25 Z M 19.5 4.613281 C 11.285156 4.613281 4.613281 11.285156 4.613281 19.5 C 4.613281 27.714844 11.285156 34.386719 19.5 34.386719 C 27.714844 34.386719 34.386719 27.714844 34.386719 19.5 C 34.386719 11.285156 27.714844 4.613281 19.5 4.613281 Z M 19.5 4.613281 " fill-opacity="1" fill-rule="nonzero"/></g></svg>