<svg xmlns="http://www.w3.org/2000/svg" xmlns:xlink="http://www.w3.org/1999/xlink" width="50" zoomAndPan="magnify" viewBox="0 0 37.5 37.499999" height="50" preserveAspectRatio="xMidYMid meet" version="1.0"><defs><clipPath id="id1"><path d="M 2.175781 2.175781 L 33.675781 2.175781 L 33.675781 33.675781 L 2.175781 33.675781 Z M 2.175781 2.175781 " clip-rule="nonzero"/></clipPath></defs><path fill="#ffffff" d="M 23.457031 26.445312 C 23.273438 26.839844 21.230469 27.835938 18.894531 27.492188 C 16.492188 27.132812 14.300781 25.289062 14.300781 22.199219 C 14.300781 19.121094 14.300781 16.132812 14.300781 16.132812 L 12.390625 16.132812 L 12.390625 13.597656 C 12.390625 13.597656 14.011719 13.121094 15.019531 11.664062 C 15.894531 10.386719 16.082031 9.023438 16.148438 8.503906 C 16.160156 8.371094 16.265625 8.277344 16.398438 8.277344 L 19.144531 8.277344 L 19.144531 13.1875 L 23.007812 13.1875 L 23.007812 16.148438 L 19.144531 16.148438 C 19.144531 16.148438 19.144531 19.875 19.144531 21.707031 C 19.144531 23.644531 19.703125 24.464844 22.515625 23.722656 C 22.515625 23.722656 23.246094 25.765625 23.457031 26.445312 Z M 23.457031 26.445312 " fill-opacity="1" fill-rule="nonzero"/><g clip-path="url(#id1)"><path fill="#ffffff" d="M 17.925781 33.675781 C 9.246094 33.675781 2.175781 26.617188 2.175781 17.925781 C 2.175781 9.246094 9.246094 2.175781 17.925781 2.175781 C 26.601562 2.175781 33.675781 9.246094 33.675781 17.925781 C 33.675781 26.617188 26.617188 33.675781 17.925781 33.675781 Z M 17.925781 3.039062 C 9.710938 3.039062 3.039062 9.710938 3.039062 17.925781 C 3.039062 26.136719 9.710938 32.8125 17.925781 32.8125 C 26.136719 32.8125 32.8125 26.136719 32.8125 17.925781 C 32.8125 9.710938 26.136719 3.039062 17.925781 3.039062 Z M 17.925781 3.039062 " fill-opacity="1" fill-rule="nonzero"/></g></svg>