<svg xmlns="http://www.w3.org/2000/svg" xmlns:xlink="http://www.w3.org/1999/xlink" width="250" zoomAndPan="magnify" viewBox="0 0 187.5 74.999997" height="100" preserveAspectRatio="xMidYMid meet" version="1.0"><defs><g/><clipPath id="id1"><path d="M 2.738281 17.578125 L 42.488281 17.578125 L 42.488281 57.328125 L 2.738281 57.328125 Z M 2.738281 17.578125 " clip-rule="nonzero"/></clipPath></defs><g clip-path="url(#id1)"><path fill="#000000" d="M 22.613281 57.328125 C 11.65625 57.328125 2.738281 48.410156 2.738281 37.453125 C 2.738281 26.492188 11.65625 17.578125 22.613281 17.578125 C 33.574219 17.578125 42.488281 26.492188 42.488281 37.453125 C 42.488281 48.410156 33.574219 57.328125 22.613281 57.328125 Z M 22.613281 19.46875 C 12.699219 19.46875 4.632812 27.535156 4.632812 37.453125 C 4.632812 47.367188 12.699219 55.433594 22.613281 55.433594 C 32.527344 55.433594 40.597656 47.367188 40.597656 37.453125 C 40.597656 27.535156 32.527344 19.46875 22.613281 19.46875 Z M 22.613281 19.46875 " fill-opacity="1" fill-rule="nonzero"/><path fill="#000000" d="M 22.613281 17.578125 C 11.636719 17.578125 2.738281 26.476562 2.738281 37.453125 C 2.738281 48.429688 11.636719 57.328125 22.613281 57.328125 C 33.589844 57.328125 42.488281 48.429688 42.488281 37.453125 C 42.488281 26.476562 33.589844 17.578125 22.613281 17.578125 Z M 8.3125 36.941406 C 8.3125 35.386719 8.601562 34.089844 8.996094 33.734375 L 8.988281 33.734375 C 9.226562 33.347656 9.714844 33.082031 10.269531 33.082031 C 10.824219 33.082031 11.3125 33.347656 11.550781 33.734375 C 12.160156 34.839844 13.148438 35.75 14.417969 36.25 L 14.71875 36.367188 C 16.609375 37.113281 18.65625 36.761719 20.164062 35.621094 C 19.867188 35.335938 19.761719 34.890625 19.917969 34.488281 L 20.445312 33.148438 C 20.660156 32.609375 21.265625 32.351562 21.804688 32.558594 L 22.066406 32.660156 C 22.078125 32.667969 22.082031 32.671875 22.09375 32.679688 L 22.09375 32.671875 L 31.839844 36.5 L 33.789062 36.75 C 33.875 36.757812 33.949219 36.777344 34.023438 36.804688 C 35.660156 37.058594 36.914062 38.503906 36.914062 40.257812 L 9.164062 40.257812 L 9.164062 40.246094 C 8.699219 40.132812 8.324219 38.699219 8.3125 36.941406 Z M 36.914062 42.417969 L 8.773438 42.417969 L 8.773438 40.699219 L 36.914062 40.699219 Z M 36.914062 42.417969 " fill-opacity="1" fill-rule="nonzero"/></g><g fill="#000000" fill-opacity="1"><g transform="translate(48.744303, 43.788211)"><g><path d="M 9.152344 -9.515625 C 9.042969 -14.019531 7.5625 -15.828125 4.433594 -15.828125 C 3.019531 -15.828125 2.152344 -15.683594 1.265625 -15.503906 L 1.265625 -0.34375 C 2.0625 -0.125 2.695312 0 4.050781 0 C 7.777344 0 9.316406 -4.269531 9.152344 -9.515625 Z M 3.273438 -1.554688 L 3.273438 -14.128906 C 3.707031 -14.21875 3.671875 -14.273438 4.484375 -14.273438 C 5.824219 -14.273438 6.945312 -13.296875 7.019531 -9.515625 C 7.054688 -4.648438 5.988281 -1.574219 4.234375 -1.554688 Z M 3.273438 -1.554688 "/></g></g></g><g fill="#000000" fill-opacity="1"><g transform="translate(62.167692, 43.788211)"><g><path d="M 3.292969 -15.828125 C 2.515625 -15.773438 1.789062 -15.683594 1.265625 -15.574219 L 1.265625 -0.179688 C 1.753906 -0.109375 2.441406 -0.0351562 3.292969 0 Z M 3.292969 -15.828125 "/></g></g></g><g fill="#000000" fill-opacity="1"><g transform="translate(70.435577, 43.788211)"><g><path d="M 7.851562 -1.445312 C 4.683594 -1.445312 2.515625 -4.339844 2.515625 -7.921875 C 2.515625 -11.503906 4.523438 -14.398438 7.851562 -14.398438 C 11.179688 -14.398438 13.1875 -11.503906 13.1875 -7.921875 C 13.1875 -4.339844 11.015625 -1.445312 7.851562 -1.445312 Z M 7.851562 -15.953125 C 3.417969 -15.953125 0.363281 -12.355469 0.363281 -7.921875 C 0.363281 -3.492188 3.417969 0.109375 7.851562 0.109375 C 12.28125 0.109375 15.339844 -3.492188 15.339844 -7.921875 C 15.339844 -12.355469 12.28125 -15.953125 7.851562 -15.953125 Z M 7.851562 -15.953125 "/></g></g></g><g fill="#000000" fill-opacity="1"><g transform="translate(89.846578, 43.788211)"><g><path d="M 2.53125 -12.390625 C 2.53125 -13.601562 3.308594 -14.382812 4.703125 -14.382812 C 5.808594 -14.382812 6.835938 -13.640625 7.289062 -12.445312 L 7.289062 -15.265625 C 6.585938 -15.59375 5.753906 -15.828125 4.703125 -15.828125 C 2.332031 -15.828125 0.6875 -14.417969 0.6875 -12.28125 C 0.6875 -10.023438 2.117188 -8.628906 3.582031 -7.433594 C 5.101562 -6.203125 6.640625 -5.066406 6.640625 -3.507812 C 6.640625 -2.1875 5.769531 -1.554688 4.46875 -1.554688 C 3.183594 -1.554688 1.699219 -2.605469 1.230469 -3.835938 L 1.230469 -0.796875 C 2.082031 -0.253906 3.273438 0 4.484375 0 C 6.945312 0 8.539062 -1.628906 8.539062 -3.761719 C 8.539062 -6.152344 7 -7.652344 5.480469 -8.882812 C 3.996094 -10.074219 2.53125 -11.125 2.53125 -12.390625 Z M 2.53125 -12.390625 "/></g></g></g><g fill="#000000" fill-opacity="1"><g transform="translate(102.401672, 43.788211)"><g><path d="M 9.152344 -9.515625 C 9.042969 -14.019531 7.5625 -15.828125 4.433594 -15.828125 C 3.019531 -15.828125 2.152344 -15.683594 1.265625 -15.503906 L 1.265625 -0.34375 C 2.0625 -0.125 2.695312 0 4.050781 0 C 7.777344 0 9.316406 -4.269531 9.152344 -9.515625 Z M 3.273438 -1.554688 L 3.273438 -14.128906 C 3.707031 -14.21875 3.671875 -14.273438 4.484375 -14.273438 C 5.824219 -14.273438 6.945312 -13.296875 7.019531 -9.515625 C 7.054688 -4.648438 5.988281 -1.574219 4.234375 -1.554688 Z M 3.273438 -1.554688 "/></g></g></g><g fill="#000000" fill-opacity="1"><g transform="translate(115.825064, 43.788211)"><g><path d="M 9.824219 0 C 9.480469 -0.46875 9.1875 -1.066406 9.007812 -1.863281 L 5.878906 -15.828125 C 5.101562 -15.773438 4.449219 -15.683594 3.925781 -15.574219 L 0.851562 -1.882812 C 0.667969 -1.085938 0.378906 -0.488281 0 0 L 2.476562 0 C 2.40625 -0.597656 2.460938 -1.375 2.621094 -2.097656 C 3.945312 -2.894531 5.589844 -2.929688 6.945312 -2.226562 C 7.128906 -1.394531 7.179688 -0.597656 7.109375 0 Z M 6.296875 -4.070312 C 5.335938 -4.484375 4.25 -4.484375 3.347656 -4.070312 L 3.164062 -4.070312 L 4.449219 -10.457031 C 4.59375 -11.144531 4.558594 -11.304688 4.738281 -11.882812 L 4.921875 -11.882812 C 5.101562 -11.304688 5.066406 -11.144531 5.210938 -10.457031 L 6.476562 -4.070312 Z M 6.296875 -4.070312 "/></g></g></g><g fill="#000000" fill-opacity="1"><g transform="translate(129.356987, 43.788211)"><g><path d="M 9.152344 -9.515625 C 9.042969 -14.019531 7.5625 -15.828125 4.433594 -15.828125 C 3.019531 -15.828125 2.152344 -15.683594 1.265625 -15.503906 L 1.265625 -0.34375 C 2.0625 -0.125 2.695312 0 4.050781 0 C 7.777344 0 9.316406 -4.269531 9.152344 -9.515625 Z M 3.273438 -1.554688 L 3.273438 -14.128906 C 3.707031 -14.21875 3.671875 -14.273438 4.484375 -14.273438 C 5.824219 -14.273438 6.945312 -13.296875 7.019531 -9.515625 C 7.054688 -4.648438 5.988281 -1.574219 4.234375 -1.554688 Z M 3.273438 -1.554688 "/></g></g></g><g fill="#000000" fill-opacity="1"><g transform="translate(142.780376, 43.788211)"><g><path d="M 7.851562 -1.445312 C 4.683594 -1.445312 2.515625 -4.339844 2.515625 -7.921875 C 2.515625 -11.503906 4.523438 -14.398438 7.851562 -14.398438 C 11.179688 -14.398438 13.1875 -11.503906 13.1875 -7.921875 C 13.1875 -4.339844 11.015625 -1.445312 7.851562 -1.445312 Z M 7.851562 -15.953125 C 3.417969 -15.953125 0.363281 -12.355469 0.363281 -7.921875 C 0.363281 -3.492188 3.417969 0.109375 7.851562 0.109375 C 12.28125 0.109375 15.339844 -3.492188 15.339844 -7.921875 C 15.339844 -12.355469 12.28125 -15.953125 7.851562 -15.953125 Z M 7.851562 -15.953125 "/></g></g></g><g fill="#000000" fill-opacity="1"><g transform="translate(162.191375, 43.788211)"><g><path d="M 2.550781 -11.632812 L 3.039062 -13.945312 C 3.203125 -14.652344 3.148438 -15.394531 2.914062 -15.828125 L 0.90625 -15.828125 C 1.230469 -15.304688 1.355469 -14.578125 1.375 -13.730469 L 1.375 -11.632812 Z M 2.550781 -11.632812 "/></g></g></g><g fill="#000000" fill-opacity="1"><g transform="translate(169.952757, 43.788211)"><g><path d="M 2.53125 -12.390625 C 2.53125 -13.601562 3.308594 -14.382812 4.703125 -14.382812 C 5.808594 -14.382812 6.835938 -13.640625 7.289062 -12.445312 L 7.289062 -15.265625 C 6.585938 -15.59375 5.753906 -15.828125 4.703125 -15.828125 C 2.332031 -15.828125 0.6875 -14.417969 0.6875 -12.28125 C 0.6875 -10.023438 2.117188 -8.628906 3.582031 -7.433594 C 5.101562 -6.203125 6.640625 -5.066406 6.640625 -3.507812 C 6.640625 -2.1875 5.769531 -1.554688 4.46875 -1.554688 C 3.183594 -1.554688 1.699219 -2.605469 1.230469 -3.835938 L 1.230469 -0.796875 C 2.082031 -0.253906 3.273438 0 4.484375 0 C 6.945312 0 8.539062 -1.628906 8.539062 -3.761719 C 8.539062 -6.152344 7 -7.652344 5.480469 -8.882812 C 3.996094 -10.074219 2.53125 -11.125 2.53125 -12.390625 Z M 2.53125 -12.390625 "/></g></g></g></svg>