<svg xmlns="http://www.w3.org/2000/svg" xmlns:xlink="http://www.w3.org/1999/xlink" width="50" zoomAndPan="magnify" viewBox="0 0 37.5 37.499999" height="50" preserveAspectRatio="xMidYMid meet" version="1.0"><defs><g/><clipPath id="id1"><path d="M 0.59375 13.644531 L 36.59375 13.644531 L 36.59375 24.144531 L 0.59375 24.144531 Z M 0.59375 13.644531 " clip-rule="nonzero"/></clipPath></defs><g clip-path="url(#id1)"><path fill="#141223" d="M 31.546875 24.128906 L 5.644531 24.128906 C 2.851562 24.128906 0.59375 21.789062 0.59375 18.894531 C 0.59375 16 2.851562 13.65625 5.644531 13.65625 L 31.546875 13.65625 C 34.335938 13.65625 36.59375 16 36.59375 18.894531 C 36.59375 21.789062 34.328125 24.128906 31.546875 24.128906 Z M 31.546875 24.128906 " fill-opacity="1" fill-rule="nonzero"/></g><g fill="#ffffff" fill-opacity="1"><g transform="translate(12.305049, 21.252923)"><g><path d="M 0.484375 0 L 0.484375 -5.390625 L 2.375 -5.390625 C 3.019531 -5.390625 3.507812 -5.265625 3.84375 -5.015625 C 4.1875 -4.765625 4.359375 -4.394531 4.359375 -3.90625 C 4.359375 -3.644531 4.289062 -3.410156 4.15625 -3.203125 C 4.019531 -3.003906 3.832031 -2.859375 3.59375 -2.765625 C 3.863281 -2.703125 4.078125 -2.5625 4.234375 -2.34375 C 4.398438 -2.132812 4.484375 -1.878906 4.484375 -1.578125 C 4.484375 -1.066406 4.316406 -0.675781 3.984375 -0.40625 C 3.660156 -0.132812 3.191406 0 2.578125 0 Z M 1.59375 -2.34375 L 1.59375 -0.890625 L 2.546875 -0.890625 C 2.804688 -0.890625 3.007812 -0.953125 3.15625 -1.078125 C 3.300781 -1.203125 3.375 -1.375 3.375 -1.59375 C 3.375 -2.082031 3.117188 -2.332031 2.609375 -2.34375 Z M 1.59375 -3.125 L 2.40625 -3.125 C 2.96875 -3.132812 3.25 -3.359375 3.25 -3.796875 C 3.25 -4.046875 3.175781 -4.222656 3.03125 -4.328125 C 2.894531 -4.429688 2.675781 -4.484375 2.375 -4.484375 L 1.59375 -4.484375 Z M 1.59375 -3.125 "/></g></g></g><g fill="#ffffff" fill-opacity="1"><g transform="translate(17.144672, 21.252923)"><g><path d="M 2.8125 -0.40625 C 2.539062 -0.0820312 2.175781 0.078125 1.71875 0.078125 C 1.28125 0.078125 0.945312 -0.046875 0.71875 -0.296875 C 0.5 -0.546875 0.390625 -0.90625 0.390625 -1.375 L 0.390625 -4 L 1.453125 -4 L 1.453125 -1.421875 C 1.453125 -1.003906 1.644531 -0.796875 2.03125 -0.796875 C 2.382812 -0.796875 2.628906 -0.921875 2.765625 -1.171875 L 2.765625 -4 L 3.84375 -4 L 3.84375 0 L 2.84375 0 Z M 2.8125 -0.40625 "/></g></g></g><g fill="#ffffff" fill-opacity="1"><g transform="translate(21.388135, 21.252923)"><g><path d="M 1.90625 -1.515625 L 2.640625 -4 L 3.796875 -4 L 2.1875 0.625 L 2.09375 0.828125 C 1.851562 1.347656 1.457031 1.609375 0.90625 1.609375 C 0.75 1.609375 0.59375 1.585938 0.4375 1.546875 L 0.4375 0.734375 L 0.59375 0.734375 C 0.800781 0.734375 0.953125 0.703125 1.046875 0.640625 C 1.148438 0.585938 1.226562 0.488281 1.28125 0.34375 L 1.40625 0.015625 L 0.015625 -4 L 1.15625 -4 Z M 1.90625 -1.515625 "/></g></g></g></svg>