<svg xmlns="http://www.w3.org/2000/svg" xmlns:xlink="http://www.w3.org/1999/xlink" width="50" zoomAndPan="magnify" viewBox="0 0 37.5 37.499999" height="50" preserveAspectRatio="xMidYMid meet" version="1.0"><defs><clipPath id="id1"><path d="M 1.726562 1.726562 L 35.476562 1.726562 L 35.476562 35.476562 L 1.726562 35.476562 Z M 1.726562 1.726562 " clip-rule="nonzero"/></clipPath></defs><g clip-path="url(#id1)"><path fill="#ffffff" d="M 11.851562 28.726562 C 9.984375 28.726562 8.492188 30.234375 8.492188 32.101562 C 8.492188 33.964844 9.984375 35.476562 11.851562 35.476562 C 13.714844 35.476562 15.226562 33.964844 15.226562 32.101562 C 15.226562 30.234375 13.714844 28.726562 11.851562 28.726562 Z M 1.726562 1.726562 L 1.726562 5.101562 L 5.101562 5.101562 L 11.167969 17.898438 L 8.886719 22.035156 C 8.625 22.523438 8.476562 23.070312 8.476562 23.664062 C 8.476562 25.527344 9.984375 27.039062 11.851562 27.039062 L 32.101562 27.039062 L 32.101562 23.664062 L 12.566406 23.664062 C 12.332031 23.664062 12.144531 23.476562 12.144531 23.242188 C 12.144531 23.164062 12.164062 23.097656 12.195312 23.039062 L 13.707031 20.289062 L 26.277344 20.289062 C 27.542969 20.289062 28.648438 19.585938 29.230469 18.550781 L 35.265625 7.597656 C 35.398438 7.359375 35.476562 7.082031 35.476562 6.789062 C 35.476562 5.851562 34.714844 5.101562 33.789062 5.101562 L 8.835938 5.101562 L 7.234375 1.726562 Z M 28.726562 28.726562 C 26.859375 28.726562 25.367188 30.234375 25.367188 32.101562 C 25.367188 33.964844 26.859375 35.476562 28.726562 35.476562 C 30.589844 35.476562 32.101562 33.964844 32.101562 32.101562 C 32.101562 30.234375 30.589844 28.726562 28.726562 28.726562 Z M 28.726562 28.726562 " fill-opacity="1" fill-rule="nonzero"/></g></svg>