<svg xmlns="http://www.w3.org/2000/svg" xmlns:xlink="http://www.w3.org/1999/xlink" width="50" zoomAndPan="magnify" viewBox="0 0 37.5 37.499999" height="50" preserveAspectRatio="xMidYMid meet" version="1.0"><defs><clipPath id="id1"><path d="M 2.664062 2.664062 L 34.914062 2.664062 L 34.914062 34.914062 L 2.664062 34.914062 Z M 2.664062 2.664062 " clip-rule="nonzero"/></clipPath></defs><path fill="#ffffff" d="M 23 9.523438 L 14.589844 9.523438 C 11.804688 9.523438 9.535156 11.792969 9.535156 14.578125 L 9.535156 22.984375 C 9.535156 25.769531 11.804688 28.039062 14.589844 28.039062 L 23 28.039062 C 25.785156 28.039062 28.050781 25.769531 28.050781 22.984375 L 28.050781 14.589844 C 28.050781 11.792969 25.785156 9.523438 23 9.523438 Z M 26.460938 23 C 26.460938 24.914062 24.914062 26.460938 23 26.460938 L 14.589844 26.460938 C 12.675781 26.460938 11.113281 24.914062 11.113281 23 L 11.113281 14.589844 C 11.113281 12.675781 12.675781 11.113281 14.589844 11.113281 L 23 11.113281 C 24.914062 11.113281 26.460938 12.660156 26.460938 14.589844 Z M 26.460938 23 " fill-opacity="1" fill-rule="nonzero"/><path fill="#ffffff" d="M 24.980469 13.71875 C 24.980469 14.34375 24.480469 14.863281 23.839844 14.863281 C 23.214844 14.863281 22.699219 14.359375 22.699219 13.71875 C 22.699219 13.09375 23.203125 12.578125 23.839844 12.578125 C 24.480469 12.59375 24.980469 13.09375 24.980469 13.71875 Z M 24.980469 13.71875 " fill-opacity="1" fill-rule="nonzero"/><path fill="#ffffff" d="M 18.789062 14.074219 C 16.191406 14.074219 14.074219 16.191406 14.074219 18.789062 C 14.074219 21.382812 16.191406 23.5 18.789062 23.5 C 21.382812 23.5 23.5 21.382812 23.5 18.789062 C 23.5 16.191406 21.394531 14.074219 18.789062 14.074219 Z M 18.789062 21.910156 C 17.0625 21.910156 15.664062 20.511719 15.664062 18.789062 C 15.664062 17.0625 17.0625 15.664062 18.789062 15.664062 C 20.511719 15.664062 21.910156 17.0625 21.910156 18.789062 C 21.910156 20.511719 20.511719 21.910156 18.789062 21.910156 Z M 18.789062 21.910156 " fill-opacity="1" fill-rule="nonzero"/><g clip-path="url(#id1)"><path fill="#ffffff" d="M 18.789062 34.914062 C 9.902344 34.914062 2.664062 27.683594 2.664062 18.789062 C 2.664062 9.902344 9.902344 2.664062 18.789062 2.664062 C 27.683594 2.664062 34.914062 9.902344 34.914062 18.789062 C 34.914062 27.683594 27.683594 34.914062 18.789062 34.914062 Z M 18.789062 3.546875 C 10.378906 3.546875 3.546875 10.378906 3.546875 18.789062 C 3.546875 27.195312 10.378906 34.03125 18.789062 34.03125 C 27.195312 34.03125 34.03125 27.195312 34.03125 18.789062 C 34.03125 10.378906 27.195312 3.546875 18.789062 3.546875 Z M 18.789062 3.546875 " fill-opacity="1" fill-rule="nonzero"/></g></svg>