<svg xmlns="http://www.w3.org/2000/svg" xmlns:xlink="http://www.w3.org/1999/xlink" width="50" zoomAndPan="magnify" viewBox="0 0 37.5 37.499999" height="50" preserveAspectRatio="xMidYMid meet" version="1.0"><defs><clipPath id="id1"><path d="M 2.210938 2.210938 L 35.210938 2.210938 L 35.210938 35.210938 L 2.210938 35.210938 Z M 2.210938 2.210938 " clip-rule="nonzero"/></clipPath></defs><path fill="#ffffff" d="M 23.582031 17.691406 C 23.582031 18.078125 23.546875 18.460938 23.46875 18.839844 C 23.394531 19.21875 23.28125 19.589844 23.132812 19.945312 C 22.984375 20.304688 22.804688 20.644531 22.589844 20.964844 C 22.375 21.285156 22.128906 21.582031 21.855469 21.855469 C 21.582031 22.128906 21.285156 22.375 20.964844 22.589844 C 20.644531 22.804688 20.304688 22.984375 19.945312 23.132812 C 19.589844 23.28125 19.21875 23.394531 18.839844 23.46875 C 18.460938 23.546875 18.078125 23.582031 17.691406 23.582031 C 17.304688 23.582031 16.921875 23.546875 16.542969 23.46875 C 16.164062 23.394531 15.792969 23.28125 15.4375 23.132812 C 15.078125 22.984375 14.738281 22.804688 14.417969 22.589844 C 14.097656 22.375 13.800781 22.128906 13.527344 21.855469 C 13.25 21.582031 13.007812 21.285156 12.792969 20.964844 C 12.578125 20.644531 12.394531 20.304688 12.25 19.945312 C 12.101562 19.589844 11.988281 19.21875 11.914062 18.839844 C 11.835938 18.460938 11.800781 18.078125 11.800781 17.691406 C 11.800781 17.304688 11.835938 16.921875 11.914062 16.542969 C 11.988281 16.164062 12.101562 15.792969 12.25 15.4375 C 12.394531 15.078125 12.578125 14.738281 12.792969 14.417969 C 13.007812 14.097656 13.25 13.800781 13.527344 13.527344 C 13.800781 13.25 14.097656 13.007812 14.417969 12.792969 C 14.738281 12.578125 15.078125 12.394531 15.4375 12.25 C 15.792969 12.101562 16.164062 11.988281 16.542969 11.914062 C 16.921875 11.835938 17.304688 11.800781 17.691406 11.800781 C 18.078125 11.800781 18.460938 11.835938 18.839844 11.914062 C 19.21875 11.988281 19.589844 12.101562 19.945312 12.25 C 20.304688 12.394531 20.644531 12.578125 20.964844 12.792969 C 21.285156 13.007812 21.582031 13.25 21.855469 13.527344 C 22.128906 13.800781 22.375 14.097656 22.589844 14.417969 C 22.804688 14.738281 22.984375 15.078125 23.132812 15.4375 C 23.28125 15.792969 23.394531 16.164062 23.46875 16.542969 C 23.546875 16.921875 23.582031 17.304688 23.582031 17.691406 Z M 23.582031 17.691406 " fill-opacity="1" fill-rule="nonzero"/><g clip-path="url(#id1)"><path fill="#ffffff" d="M 18.710938 2.210938 C 9.601562 2.210938 2.210938 9.601562 2.210938 18.710938 C 2.210938 27.824219 9.601562 35.210938 18.710938 35.210938 C 27.824219 35.210938 35.210938 27.824219 35.210938 18.710938 C 35.210938 9.601562 27.824219 2.210938 18.710938 2.210938 Z M 28.308594 28.308594 C 27.695312 28.921875 26.699219 28.921875 26.085938 28.308594 L 22.871094 25.09375 C 21.40625 26.117188 19.628906 26.722656 17.707031 26.726562 C 12.785156 26.730469 8.738281 22.761719 8.660156 17.839844 C 8.578125 12.734375 12.734375 8.578125 17.839844 8.660156 C 22.761719 8.738281 26.730469 12.785156 26.726562 17.707031 C 26.722656 19.628906 26.117188 21.40625 25.09375 22.871094 L 28.308594 26.085938 C 28.921875 26.699219 28.921875 27.695312 28.308594 28.308594 Z M 28.308594 28.308594 " fill-opacity="1" fill-rule="nonzero"/></g></svg>